<?xml version="1.0" encoding="utf-8"?>
<!-- Generator: Adobe Illustrator 15.0.0, SVG Export Plug-In . SVG Version: 6.00 Build 0)  -->
<!DOCTYPE svg PUBLIC "-//W3C//DTD SVG 1.1//EN" "http://www.w3.org/Graphics/SVG/1.1/DTD/svg11.dtd">
<svg version="1.1" id="Layer_1" xmlns="http://www.w3.org/2000/svg" xmlns:xlink="http://www.w3.org/1999/xlink" x="0px" y="0px"
	 width="1739.333px" height="2000px" viewBox="0 0 1739.333 2000" enable-background="new 0 0 1739.333 2000" xml:space="preserve">
<g>
	<g>
		<g>
			<path fill="#E67817" d="M875.644,1996v-0.01c-0.353,0-0.704,0.01-1.057,0.01H875.644z"/>
			<path fill="#E67817" d="M1607.75,1347.322c24.126-54.404,43.039-111.84,55.771-171.755l-94.72-21.312
				c-70.994,333.093-353.467,582.541-693.467,583.074V1737h0.375c-339.748,0-623.914-249.467-694.983-582.918l-94.854,21.398
				c12.73,59.92,31.501,117.393,55.625,171.801L0.427,1401.536C150.373,1751.422,485.859,1995,875.71,1995h-0.377v0.99
				c390-0.443,723.448-244.364,873.258-593.934L1607.75,1347.322z"/>
		</g>
	</g>
	<g>
		<path fill="#E67817" d="M248.491,908c32.747-335.011,301.989-596.338,629.347-596.338c327.357,0,596.617,261.325,629.362,596.338
			h3.378V210.249H240.707V908H248.491z"/>
		<path fill="#FFFFFF" d="M1487.54,1154.802c0.596-2.254,1.178-4.515,1.749-6.779l-4.226,3.492L1487.54,1154.802z"/>
		<path fill="#FFFFFF" d="M448.665,1083.317l212.368-175.516l212.377,175.516l212.367-175.516l212.401,175.519l209.324-172.163
			c-31.464-336.528-302.334-599.496-631.859-599.496c-330.631,0-602.19,264.737-632.148,602.885L448.665,1083.317z M553.333,528.978
			l111.892-92.295L877.71,612.198l212.828-175.516l107.795,88.695v111.775l-107.736-88.691l-100.11,82.568L877.92,723.978
			l-112.457-92.894l-0.026-0.002l-100.2-82.62l-111.904,92.295V528.978z M553.333,686.017l111.892-92.295L877.71,769.237
			l212.828-175.516l107.795,88.695v111.778l-107.736-88.691l-100.11,82.568L877.92,881.019l-112.457-92.896l-100.214-82.62
			l-111.917,92.295V686.017z M553.333,843.059l111.892-92.296L877.71,926.278l212.828-175.516l107.795,88.696v111.775
			l-107.736-88.691l-100.11,82.568l-112.567,92.948l-112.457-92.894l-0.026-0.002l-100.2-82.62l-111.904,92.295V843.059z"/>
		<g>
			<path fill="#241A71" d="M1298.178,1083.32l-212.401-175.519L873.41,1083.317L661.033,907.801l-212.368,175.516l-205.17-168.77
				c-1.815,20.492-2.788,41.24-2.788,62.229c0,15.056,0.546,29.973,1.492,44.777c0.061,0.964,0.084,1.939,0.148,2.902
				l206.318,169.713l212.368-175.516l212.377,175.516l212.367-175.516l212.401,175.518l211.095-175.271
				c0.834-13.934,1.305-27.97,1.305-42.124c0-22.146-1.057-44.03-3.076-65.619L1298.178,1083.32z"/>
		</g>
		<g>
			<path fill="#00A9E6" d="M1298.178,1194.171l-212.401-175.518L873.41,1194.169l-212.377-175.516l-212.368,175.516
				l-206.318-169.713c2.952,43.641,9.934,86.108,20.539,127.021l185.779,153.544l212.368-175.516l212.377,175.516l212.367-175.516
				l212.401,175.518l186.458-154.076l0.428,0.568l4.226-3.492c10.34-40.751,17.039-83.044,19.795-126.469
				c0.056-0.887,0.136-1.767,0.189-2.653L1298.178,1194.171z"/>
		</g>
		<g>
			<path fill="#241A71" d="M1484.635,1150.946l-186.458,154.076l-212.401-175.518L873.41,1305.021l-212.377-175.516
				l-212.368,175.516l-185.779-153.544c15.394,59.385,38.423,115.467,67.952,167.013l117.827,97.384l212.368-175.515
				l212.377,175.515l212.367-175.515l212.401,175.516l126.128-104.225c27.139-48.687,48.536-101.303,63.233-156.848l-2.477-3.287
				L1484.635,1150.946z"/>
		</g>
		<g>
			<path fill="#00A9E6" d="M1085.777,1240.358L873.41,1415.873l-212.377-175.515l-212.368,175.515l-117.827-97.384
				c39.729,69.355,91.169,130.502,151.478,180.423l178.717-147.702l212.377,175.514l212.367-175.514l180.966,149.543
				c63.254-51.88,116.852-116.066,157.563-189.104l-126.128,104.225L1085.777,1240.358z"/>
		</g>
		<g>
			<path fill="#241A71" d="M873.41,1526.724L661.033,1351.21l-178.717,147.702c22.733,18.816,46.738,36.015,71.835,51.485
				l106.881-88.336l212.377,175.514l212.367-175.514l108.807,89.912c25.203-15.368,49.313-32.483,72.159-51.221l-180.966-149.543
				L873.41,1526.724z"/>
		</g>
		<g>
			<path fill="#00A9E6" d="M873.41,1637.575l-212.377-175.514l-106.881,88.336c94.3,58.117,204.165,91.492,321.491,91.492
				c116.266,0,225.214-32.764,318.941-89.916l-108.807-89.912L873.41,1637.575z"/>
		</g>
		<g>
			<polygon fill="#01933F" points="765.333,945.162 765.333,833.382 877.779,926.278 665.206,750.762 553.333,843.059 
				553.333,954.837 665.186,862.542 			"/>
		</g>
		<g>
			<polygon fill="#01933F" points="990.333,945.11 1090.122,862.542 1197.333,951.233 1197.333,839.458 1090.093,750.762 
				877.796,926.278 990.333,833.329 			"/>
		</g>
		<g>
			<polygon fill="#01933F" points="990.333,788.071 1090.122,705.503 1197.333,794.194 1197.333,682.417 1090.093,593.722 
				877.796,769.237 990.333,676.288 			"/>
		</g>
		<g>
			<polygon fill="#01933F" points="765.333,788.123 765.333,676.341 877.779,769.237 665.206,593.722 553.333,686.017 
				553.333,797.798 665.186,705.503 			"/>
		</g>
		<g>
			<polygon fill="#01933F" points="765.333,631.082 765.333,519.303 877.779,612.198 665.206,436.683 553.333,528.978 
				553.333,640.757 665.186,548.462 			"/>
		</g>
		<g>
			<polygon fill="#01933F" points="990.333,631.03 1090.122,548.462 1197.333,637.153 1197.333,525.378 1090.093,436.683 
				877.796,612.198 990.333,519.249 			"/>
		</g>
		<g>
			<polygon fill="#D7271D" points="765.333,945.162 765.333,945.164 877.803,1038.058 990.333,945.11 990.333,833.329 
				877.803,926.278 765.333,833.382 			"/>
		</g>
		<g>
			<polygon fill="#D7271D" points="765.333,788.123 877.803,881.019 990.333,788.071 990.333,676.288 877.803,769.237 
				765.333,676.341 			"/>
		</g>
		<g>
			<polygon fill="#D7271D" points="765.333,631.082 765.333,631.084 877.803,723.978 990.333,631.03 990.333,519.249 
				877.803,612.198 765.333,519.303 			"/>
		</g>
	</g>
	<g>
		<g>
			<path fill="#28166A" d="M406.872,110.117l46.575,3.008c-2.998,16.442-13.791,29.974-32.379,40.601
				c-18.588,10.626-43.001,15.938-73.231,15.938c-25.469,0-46.136-3.768-61.999-11.309c-15.868-7.536-28.087-17.761-36.669-30.674
				c-8.58-12.913-12.869-27.146-12.869-42.706c0-25.019,10.076-45.37,30.23-61.049c20.158-15.678,47.873-23.517,83.143-23.517
				c27.644,0,50.661,5.012,69.045,15.036c18.387,10.026,29.959,24.38,34.728,43.065l-46.575,2.885
				c-8.58-24.778-27.51-37.169-56.789-37.169c-18.796,0-33.401,5.155-43.817,15.457c-10.42,10.306-15.628,25.243-15.628,44.811
				c0,19.889,5.583,34.906,16.751,45.051c11.163,10.145,25.943,15.217,44.325,15.217c14.711,0,27.238-3.408,37.589-10.227
				C399.65,127.722,405.512,119.58,406.872,110.117z"/>
			<path fill="#28166A" d="M543.533,167.137h-50.252V2.935h50.252V167.137z"/>
			<path fill="#28166A" d="M878.342,167.137h-51.273V23.384l-77.218,143.753h-26.352L645.875,23.384v143.753h-41.057V2.935h78.645
				l58.422,105.741L799.287,2.935h79.055V167.137z"/>
			<path fill="#28166A" d="M1158.61,167.137h-53.728l-22.264-39.096H975.371l-21.857,39.096h-42.897l92.539-164.202h61.895
				L1158.61,167.137z M1069.137,104.343l-40.652-73.259l-40.65,73.259H1069.137z"/>
			<path fill="#28166A" d="M1399.044,167.137h-50.253V95.803h-106.427v71.334h-50.252V2.935h50.252v67.485h106.427V2.935h50.253
				V167.137z"/>
			<path fill="#28166A" d="M1510.578,167.137h-50.254V2.935h50.254V167.137z"/>
		</g>
	</g>
	<g>
		<path fill="#FFFFFF" d="M99.812,1432.271l8.441,11.854c-3.78,3.179-5.994,6.493-6.641,9.939
			c-0.648,3.448,0.157,7.133,2.414,11.057c2.39,4.156,5.069,6.782,8.041,7.879c2.97,1.096,5.632,0.967,7.987-0.387
			c1.511-0.869,2.542-2.052,3.094-3.549c0.551-1.497,0.583-3.575,0.098-6.235c-0.346-1.813-1.397-5.791-3.152-11.938
			c-2.264-7.903-2.948-13.969-2.052-18.197c1.26-5.945,4.419-10.373,9.477-13.281c3.255-1.872,6.831-2.701,10.726-2.484
			c3.895,0.216,7.583,1.634,11.063,4.255c3.479,2.621,6.632,6.388,9.457,11.3c4.613,8.021,6.327,15.071,5.142,21.148
			c-1.186,6.077-4.655,10.905-10.409,14.485l-7.988-12.579c2.966-2.441,4.647-4.983,5.041-7.627
			c0.394-2.645-0.454-5.783-2.543-9.416c-2.156-3.749-4.615-6.242-7.375-7.478c-1.774-0.799-3.489-0.721-5.146,0.232
			c-1.511,0.869-2.438,2.252-2.777,4.149c-0.431,2.413,0.419,7.185,2.547,14.315c2.128,7.131,3.265,12.655,3.411,16.575
			c0.146,3.919-0.666,7.519-2.435,10.798c-1.769,3.28-4.674,6.082-8.713,8.405c-3.662,2.105-7.677,3.061-12.044,2.865
			c-4.368-0.196-8.399-1.707-12.093-4.533c-3.694-2.827-7.138-7.016-10.33-12.566c-4.647-8.081-6.349-15.359-5.104-21.838
			C89.191,1442.943,93.146,1437.227,99.812,1432.271z"/>
		<path fill="#FFFFFF" d="M155.428,1564.627l-9.218-13.315l10.106-14.825l-16.774-24.231l-17.234,4.528l-8.988-12.984l76.967-18.354
			l8.96,12.943L155.428,1564.627z M163.811,1525.487l16.713-23.925l-28.163,7.385L163.811,1525.487z"/>
		<path fill="#FFFFFF" d="M162.979,1573.775l56.61-46.289l9.423,11.524l-46.993,38.426l23.431,28.655l-9.617,7.864L162.979,1573.775
			z"/>
		<path fill="#FFFFFF" d="M258.318,1573.47l10.313,10.736l-28.8,27.662c-4.57,4.39-7.405,7.368-8.503,8.935
			c-1.735,2.55-2.431,5.322-2.088,8.317c0.342,2.994,1.954,5.991,4.834,8.989c2.926,3.047,5.755,4.746,8.487,5.098
			c2.731,0.352,5.155-0.187,7.271-1.614c2.115-1.428,5.277-4.162,9.484-8.203l29.417-28.255l10.313,10.736l-27.929,26.826
			c-6.384,6.132-11.173,10.174-14.366,12.124c-3.193,1.952-6.445,3.019-9.757,3.201c-3.312,0.182-6.76-0.516-10.344-2.094
			s-7.397-4.471-11.439-8.679c-4.877-5.078-7.99-9.492-9.337-13.242c-1.348-3.75-1.815-7.286-1.405-10.61
			c0.411-3.322,1.411-6.214,3.002-8.672c2.373-3.628,6.534-8.298,12.483-14.012L258.318,1573.47z"/>
		<path fill="#FFFFFF" d="M274.468,1693.106l20.518-23.279l7.971-49.891l13.093,11.539l-6.271,33.356l32.04-10.645l12.866,11.34
			l-48.635,14.185l-20.451,23.204L274.468,1693.106z"/>
		<path fill="#FFFFFF" d="M358.602,1668.453l11.948,8.88l-23.821,32.05c-3.78,5.086-6.083,8.492-6.906,10.219
			c-1.29,2.802-1.517,5.651-0.682,8.548c0.833,2.897,2.919,5.585,6.256,8.065c3.391,2.521,6.461,3.728,9.214,3.622
			c2.752-0.106,5.053-1.038,6.903-2.796c1.85-1.759,4.515-4.979,7.995-9.661l24.332-32.735l11.948,8.88l-23.102,31.081
			c-5.28,7.104-9.333,11.883-12.159,14.336c-2.826,2.453-5.857,4.044-9.093,4.771c-3.235,0.729-6.752,0.611-10.548-0.352
			s-8.036-3.184-12.718-6.664c-5.651-4.2-9.452-8.038-11.401-11.514c-1.95-3.475-2.998-6.885-3.143-10.23
			c-0.146-3.346,0.363-6.362,1.525-9.05c1.739-3.971,5.07-9.266,9.99-15.886L358.602,1668.453z"/>
		<path fill="#FFFFFF" d="M403.517,1790.014l36.563-64.025l12.578,7.183l1.788,57.721l24.417-42.757l12.01,6.859l-36.562,64.024
			l-12.971-7.407l-1.968-56.491l-23.843,41.752L403.517,1790.014z"/>
		<path fill="#FFFFFF" d="M514.309,1817.778l5.159-11.301l29.189,13.325l-12.196,26.719c-4.09,1.45-9.304,1.991-15.641,1.623
			c-6.337-0.368-12.267-1.813-17.787-4.332c-7.016-3.202-12.459-7.465-16.331-12.79c-3.873-5.323-5.871-11.322-5.994-17.994
			c-0.125-6.673,1.283-13.227,4.221-19.662c3.188-6.984,7.485-12.523,12.892-16.616c5.406-4.093,11.591-6.3,18.558-6.622
			c5.317-0.263,11.178,1.066,17.583,3.99c8.327,3.802,14.033,8.517,17.122,14.146c3.087,5.63,3.896,11.831,2.426,18.604l-14.6-3.623
			c0.558-3.727-0.032-7.137-1.77-10.234c-1.738-3.096-4.559-5.536-8.462-7.318c-5.918-2.701-11.479-2.973-16.684-0.814
			c-5.205,2.157-9.492,6.927-12.861,14.308c-3.634,7.961-4.59,14.739-2.869,20.334c1.721,5.596,5.448,9.702,11.183,12.32
			c2.836,1.295,5.934,2.036,9.295,2.225c3.359,0.188,6.423-0.044,9.191-0.697l3.884-8.51L514.309,1817.778z"/>
		<path fill="#FFFFFF" d="M611.564,1884.238l-15.282-5.358l-0.533-17.935l-27.811-9.752l-11.285,13.79l-14.902-5.226l51.497-60.073
			l14.855,5.209L611.564,1884.238z M595.351,1847.642l-0.534-29.18l-18.45,22.522L595.351,1847.642z"/>
		<path fill="#FFFFFF" d="M627.876,1888.804l0.637-75.799l14.792,3.663l-1.386,51.831l25.258-45.919l17.184,4.255l0.166,53.098
			l23.364-47.27l14.548,3.603l-35.103,67.264l-15.329-3.797l-1.004-57.035l-27.457,49.987L627.876,1888.804z"/>
		<path fill="#FFFFFF" d="M776.645,1917.996l-16.016-2.398l-3.886-17.516l-29.147-4.364l-8.499,15.662l-15.618-2.339l39.318-68.664
			l15.568,2.331L776.645,1917.996z M753.857,1885.089l-5.996-28.563l-13.899,25.584L753.857,1885.089z"/>
		<path fill="#FFFFFF" d="M788.557,1918.934l4.564-73.589l14.457,0.896l27.07,51.011l3.048-49.143l13.804,0.856l-4.564,73.588
			l-14.908-0.925l-26.69-49.827l-2.976,47.987L788.557,1918.934z"/>
		<path fill="#FFFFFF" d="M899.834,1895.045l-0.328-12.418l32.076-0.849l0.776,29.36c-3.037,3.1-7.484,5.876-13.338,8.327
			c-5.855,2.452-11.816,3.759-17.882,3.92c-7.709,0.203-14.472-1.235-20.289-4.318c-5.817-3.083-10.246-7.595-13.288-13.535
			c-3.042-5.939-4.656-12.445-4.843-19.518c-0.203-7.675,1.225-14.538,4.285-20.59c3.06-6.051,7.647-10.75,13.764-14.099
			c4.661-2.571,10.511-3.951,17.55-4.137c9.15-0.242,16.348,1.487,21.595,5.189c5.246,3.702,8.696,8.918,10.35,15.649l-14.708,3.156
			c-1.135-3.593-3.163-6.398-6.084-8.417s-6.527-2.973-10.817-2.858c-6.503,0.172-11.618,2.369-15.347,6.594
			c-3.729,4.224-5.485,10.392-5.271,18.503c0.231,8.748,2.348,15.257,6.353,19.528c4.003,4.271,9.156,6.323,15.457,6.156
			c3.117-0.082,6.226-0.775,9.328-2.083c3.101-1.306,5.751-2.859,7.952-4.662l-0.248-9.352L899.834,1895.045z"/>
		<path fill="#FFFFFF" d="M941.68,1846.636l14.787-1.723l4.622,39.664c0.733,6.294,1.391,10.354,1.976,12.175
			c0.981,2.924,2.769,5.154,5.362,6.692c2.592,1.538,5.954,2.065,10.083,1.584c4.196-0.489,7.26-1.715,9.191-3.679
			c1.931-1.963,2.968-4.219,3.11-6.768c0.142-2.548-0.125-6.72-0.8-12.514l-4.721-40.514l14.787-1.724l4.482,38.466
			c1.024,8.792,1.349,15.05,0.972,18.772c-0.376,3.724-1.493,6.959-3.35,9.707c-1.857,2.748-4.497,5.073-7.921,6.974
			s-8.034,3.189-13.828,3.864c-6.994,0.815-12.392,0.626-16.193-0.568c-3.802-1.194-6.902-2.959-9.3-5.296
			c-2.399-2.336-4.097-4.882-5.092-7.635c-1.456-4.084-2.66-10.222-3.614-18.414L941.68,1846.636z"/>
		<path fill="#FFFFFF" d="M1028.124,1909.951l-14.88-72.212l14.186-2.924l39.492,42.134l-9.937-48.224l13.546-2.791l14.88,72.212
			l-14.63,3.015l-38.815-41.092l9.704,47.091L1028.124,1909.951z"/>
		<path fill="#FFFFFF" d="M1135.472,1806.763l14.109-4.59l14.438,44.382c1.888,5.804,2.83,10.434,2.826,13.89
			c-0.043,4.527-1.465,8.612-4.264,12.255c-2.799,3.644-7.148,6.425-13.046,8.344c-6.919,2.25-12.874,2.046-17.864-0.615
			c-4.991-2.66-8.721-7.73-11.19-15.214l12.846-5.871c1.466,3.966,2.979,6.612,4.539,7.938c2.35,2.021,5.087,2.523,8.212,1.507
			c3.156-1.027,5.095-2.653,5.816-4.881c0.721-2.226,0.159-6.177-1.688-11.853L1135.472,1806.763z"/>
		<path fill="#FFFFFF" d="M1252.069,1840.54l-14.965,6.188l-12.349-13.017l-27.235,11.262l0.776,17.803l-14.594,6.034l-1.636-79.107
			l14.547-6.016L1252.069,1840.54z M1215.593,1824.058l-19.843-21.4l1.252,29.088L1215.593,1824.058z"/>
		<path fill="#FFFFFF" d="M1269.854,1831.265l-27.404-54.785l-19.566,9.787l-5.58-11.155l52.401-26.211l5.58,11.155l-19.521,9.765
			l27.404,54.785L1269.854,1831.265z"/>
		<path fill="#FFFFFF" d="M1312.606,1808.872l-36.474-64.075l12.938-7.364l36.474,64.075L1312.606,1808.872z"/>
		<path fill="#FFFFFF" d="M1365.986,1777.379l-42.706-60.102l18.161-12.905l40.037,33.248l-18.35-48.659l18.203-12.934
			l42.706,60.102l-11.274,8.011l-33.617-47.311l21.688,55.788l-11.685,8.302l-45.506-38.862l33.617,47.311L1365.986,1777.379z"/>
		<path fill="#FFFFFF" d="M1489.178,1680.825l-12.27,10.568l-15.808-8.488l-22.331,19.233l6.319,16.661l-11.966,10.306
			l-26.357-74.605l11.928-10.273L1489.178,1680.825z M1449.374,1676.61l-25.552-14.1l10.31,27.229L1449.374,1676.61z"/>
		<path fill="#FFFFFF" d="M1497.653,1672.431l-52.76-51.502l10.118-10.364l56.312,12.8l-35.233-34.394l9.661-9.896l52.76,51.502
			l-10.434,10.688l-55.168-12.315l34.405,33.585L1497.653,1672.431z"/>
		<path fill="#FFFFFF" d="M1494.57,1569.275l17.254-21.038c3.892-4.744,7.221-8.063,9.987-9.957
			c3.729-2.536,7.827-3.965,12.298-4.288c4.471-0.322,9.038,0.388,13.701,2.13c4.663,1.743,9.665,4.805,15.005,9.184
			c4.692,3.849,8.259,7.749,10.698,11.701c2.979,4.827,4.667,9.616,5.064,14.365c0.308,3.591-0.388,7.531-2.083,11.82
			c-1.28,3.2-3.664,6.925-7.15,11.177l-17.765,21.66L1494.57,1569.275z M1513.655,1565.674l37.76,30.968l7.049-8.595
			c2.636-3.214,4.357-5.683,5.164-7.407c1.063-2.249,1.544-4.446,1.438-6.592c-0.104-2.146-1.115-4.655-3.03-7.527
			c-1.916-2.871-5.077-6.114-9.485-9.729c-4.407-3.614-8.109-6-11.106-7.157c-2.996-1.156-5.73-1.578-8.201-1.262
			c-2.47,0.315-4.821,1.357-7.052,3.127c-1.682,1.311-4.446,4.311-8.295,9.003L1513.655,1565.674z"/>
		<path fill="#FFFFFF" d="M1599.253,1556.026l-59.709-43.253l8.732-12.057l59.71,43.254L1599.253,1556.026z"/>
		<path fill="#FFFFFF" d="M1618.044,1530.348l-62.2-39.588l16.824-26.434c4.23-6.646,7.863-11.121,10.897-13.422
			c3.035-2.301,6.557-3.448,10.565-3.44c4.01,0.009,7.853,1.183,11.529,3.522c4.667,2.971,7.648,6.796,8.942,11.475
			c1.295,4.68,0.601,10.001-2.082,15.963c3.313-1.707,6.479-2.841,9.499-3.403c3.02-0.561,7.902-0.802,14.647-0.722l16.969,0.129
			l-9.56,15.02l-19.313,0.465c-6.89,0.146-11.341,0.413-13.356,0.8c-2.014,0.387-3.679,1.097-4.991,2.129
			c-1.313,1.032-2.888,2.99-4.724,5.876l-1.62,2.546l25.966,16.526L1618.044,1530.348z M1590.143,1494.943l5.914-9.292
			c3.835-6.024,5.975-9.948,6.42-11.771c0.444-1.823,0.315-3.555-0.39-5.196c-0.704-1.641-1.99-3.055-3.856-4.243
			c-2.094-1.332-4.139-1.849-6.137-1.551c-1.999,0.299-3.815,1.357-5.451,3.178c-0.789,0.929-2.805,3.938-6.045,9.029l-6.238,9.801
			L1590.143,1494.943z"/>
		<path fill="#FFFFFF" d="M1658.13,1465.142l-64.471-35.771l7.223-13.018l64.471,35.771L1658.13,1465.142z"/>
	</g>
</g>
</svg>
